<svg xmlns="http://www.w3.org/2000/svg" viewBox="0 0 32 32" fill="none">
  <defs>
    <linearGradient id="grad" x1="0%" y1="0%" x2="100%" y2="100%">
      <stop offset="0%" style="stop-color:#4f6df5;stop-opacity:1" />
      <stop offset="100%" style="stop-color:#22c997;stop-opacity:1" />
    </linearGradient>
  </defs>
  <rect width="32" height="32" rx="8" fill="url(#grad)" />
  <path d="M6.5 16h3a2.5 2.5 0 012.5 2.5v1a2.5 2.5 0 002.5 2.5 2.5 2.5 0 012.5 2.5v1M11 7v2a3 3 0 003 3h.5a2.5 2.5 0 012.5 2.5 2.5 2.5 0 005 0 2.5 2.5 0 012.5-2.5h.5M20 25v-2a2.5 2.5 0 012.5-2.5h2.5M26 16a10 10 0 11-20 0 10 10 0 0120 0z" stroke="white" stroke-width="1.5" stroke-linecap="round" stroke-linejoin="round" />
</svg>
